# xmcd
#
# Track frame offsets: 
#        150
#        16599
#        32046
#        46326
#        66273
#        81589
#        99759
#
# Disc length: 1545 seconds
#
# Revision: 0
# Processed by: cddbd v1.5.2PL0 Copyright (c) Steve Scherf et al.
# Submitted via: ExactAudioCopy v0.99pb5
#
DISCID=4c060707
DTITLE=McNary - While We Are Waking
DYEAR=2013
DGENRE=Country
TTITLE0=Lonely Tonite
TTITLE1=Birmingham
TTITLE2=Dirty Gypsy Soul
TTITLE3=Empty Are We
TTITLE4=Whenever You Call
TTITLE5=Honeysuckle Dervish
TTITLE6=Bela
EXTD=
EXTT0=
EXTT1=
EXTT2=
EXTT3=
EXTT4=
EXTT5=
EXTT6=
PLAYORDER=
